<?xml version="1.0" encoding="UTF-8"?>
<svg xmlns="http://www.w3.org/2000/svg" viewBox="0 0 1080 1920">
  <defs>
    <style>
      .cls-1 {
        fill: #5bd8c6;
      }

      .cls-1, .cls-2, .cls-3 {
        stroke-width: 0px;
      }

      .cls-2 {
        fill: #3c3e4a;
      }

      .cls-3 {
        fill: #2b6ce0;
      }
    </style>
  </defs>
  <g id="Layer_1" data-name="Layer 1">
    <path class="cls-1" d="m70.5531,957.3735c-10.8442,0-19.6673-8.8225-19.6673-19.6673v-80.9156c0-10.8442,8.823-19.6668,19.6673-19.6668h145.0604c10.8453,0,19.6683,8.8225,19.6683,19.6668v44.2825h-87.3353v.103c-20.0646.8992-36.1109,17.5033-36.1109,37.7854v18.412h-41.2826Z"/>
    <path class="cls-3" d="m223.4777,1025.2841v-34.545c0-13.863-11.962-25.5442-27.7071-25.5442h-72.2029v-26.3442c0-14.3204,11.6504-25.9709,25.9714-25.9709h124.1478c14.3199,0,25.9703,11.6504,25.9703,25.9709v60.4626c0,14.3204-11.6504,25.9709-25.9703,25.9709h-50.2091Z"/>
    <rect class="cls-2" x="103.3044" y="953.0692" width="84.4044" height="132.0182" rx="15.8727" ry="15.8727" transform="translate(1164.5848 873.5717) rotate(90)"/>
  </g>
  <g id="Layer_2" data-name="Layer 2">
    <path class="cls-2" d="m393.6862,968.9701v-72.0019h-33.1205v-15.2402h81.4812v15.2402h-33.1205v72.0019h-15.2402Z"/>
    <path class="cls-2" d="m452.1416,968.9701v-87.2421h77.8829v15.2402h-62.7629v56.7617h62.883v15.2402h-78.003Zm26.2813-37.9203v-12.8403h48.3607v12.8403h-48.3607Z"/>
    <path class="cls-2" d="m583.0795,968.9701c-24.3591,0-42.3596-19.2019-42.3596-44.5221,0-25.6806,18.0005-42.72,42.3596-42.72h47.2824v15.2402h-47.2824c-15.5977,0-27.1194,11.6389-27.1194,28.2006,0,16.4387,11.4016,28.5611,27.1194,28.5611h47.2824v15.2402h-47.2824Z"/>
    <path class="cls-2" d="m642.7392,969.3305v-87.6025h15.2402v87.6025h-15.2402Zm70.2027,0v-37.9232h-43.9214v-13.5582h43.9214v-36.1211h15.2402v87.6025h-15.2402Z"/>
    <path class="cls-2" d="m757.4787,905.1289v63.8412h-14.5223v-79.2015c0-5.6407,3.0006-9.1218,7.8003-9.1218,2.2797,0,4.199.841,6.4817,3.1207l61.5615,61.0809v-63.8412h14.5193v79.9223c0,5.7609-3.1207,9.1189-7.56,9.1189-2.52,0-4.7997-1.0783-6.9593-3.2379l-61.3212-61.6816Z"/>
    <g>
      <path class="cls-2" d="m861.9469,916.5719c3.2544-11.8501,13.2615-19.6037,25.989-19.6037h21.2413c13.1061,0,23.0973,7.8133,26.3473,19.6037h15.7361c-3.2665-20.9708-19.5986-34.8439-42.0834-34.8439h-21.2413c-21.7655,0-38.4131,13.6269-41.7202,34.8439h15.7312Z"/>
      <path class="cls-2" d="m934.1538,937.6398c-4.1908,9.7299-13.3452,16.0901-24.9765,16.0901h-21.2413c-11.3684,0-20.4518-6.3603-24.6234-16.0901h-15.9883c5.0618,18.5032,20.7077,31.3303,40.6117,31.3303h21.2413c20.2969,0,35.9341-12.8271,40.9798-31.3303h-16.0033Z"/>
    </g>
    <g>
      <g>
        <path class="cls-2" d="m794.6681,1020.369c2.541-9.2523,10.3543-15.3061,20.2917-15.3061h16.5848c10.2329,0,18.0339,6.1005,20.5714,15.3061h12.2864c-2.5504-16.3736-15.3021-27.2054-32.8578-27.2054h-16.5848c-16.994,0-29.9921,10.6396-32.5743,27.2054h12.2826Z"/>
        <path class="cls-2" d="m851.0457,1036.8184c-3.2721,7.5969-10.4197,12.5628-19.5011,12.5628h-16.5848c-8.8762,0-15.9683-4.966-19.2254-12.5628h-12.4833c3.9522,14.4469,16.1681,24.4621,31.7088,24.4621h16.5848c15.8474,0,28.0566-10.0152,31.9962-24.4621h-12.4951Z"/>
      </g>
      <g>
        <path class="cls-2" d="m461.4542,1020.369c2.541-9.2523,10.3543-15.3061,20.2917-15.3061h16.5848c10.2329,0,18.0339,6.1005,20.5714,15.3061h12.2864c-2.5504-16.3736-15.3021-27.2054-32.8578-27.2054h-16.5848c-16.994,0-29.9921,10.6396-32.5743,27.2054h12.2826Z"/>
        <path class="cls-2" d="m517.8318,1036.8184c-3.2721,7.5969-10.4197,12.5628-19.5011,12.5628h-16.5848c-8.8762,0-15.9683-4.966-19.2254-12.5628h-12.4833c3.9522,14.4469,16.1681,24.4621,31.7088,24.4621h16.5848c15.8474,0,28.0566-10.0152,31.9962-24.4621h-12.4951Z"/>
      </g>
      <path class="cls-2" d="m369.118,1062.1247v-11.8992h51.0653c6.3694,0,9.9317-3.5622,9.9317-8.9021,0-5.8089-3.5622-8.806-9.9317-8.806h-31.2958c-12.835,0-20.799-8.1517-20.799-19.3966,0-10.9612,7.4013-19.1129,20.9867-19.1129h48.9101v11.8992h-48.9101c-5.4337,0-8.6207,3.1847-8.6207,8.3393s3.2808,8.2455,8.5269,8.2455h31.202c13.773,0,21.1743,6.4632,21.1743,19.6757,0,11.4302-6.9345,19.9571-21.1743,19.9571h-51.0653Z"/>
      <path class="cls-2" d="m542.2962,1062.1247v-68.1168h11.8992v56.2176h45.8169v11.8992h-57.7161Z"/>
      <path class="cls-2" d="m669.4538,994.0079h11.6178v38.0404c0,21.0805-10.4007,31.0121-36.8233,31.0121-26.235,0-36.7272-9.9317-36.7272-31.0121v-38.0404h12.2721v38.0404c0,13.6792,6.0903,19.3005,24.8303,19.3005s24.8303-5.6213,24.8303-19.3005v-38.0404Z"/>
      <path class="cls-2" d="m713.6898,1062.1247v-56.2176h-25.8598v-11.8992h63.6189v11.8992h-25.8598v56.2176h-11.8992Z"/>
      <path class="cls-2" d="m759.9872,1062.1247v-68.1168h11.8992v68.1168h-11.8992Z"/>
      <path class="cls-2" d="m886.1222,1012.2788v49.8459h-11.3387v-61.8389c0-4.4042,2.3428-7.1221,6.0903-7.1221,1.78,0,3.2808.6566,5.0608,2.4366l48.0659,47.6907v-49.8459h11.3364v62.4017c0,4.498-2.4366,7.1199-5.9027,7.1199-1.9676,0-3.7475-.8419-5.4337-2.5281l-47.8783-48.1597Z"/>
      <path class="cls-2" d="m956.8746,1062.1247v-11.8992h51.063c6.3717,0,9.9339-3.5622,9.9339-8.9021,0-5.8089-3.5622-8.806-9.9339-8.806h-31.2935c-12.835,0-20.799-8.1517-20.799-19.3966,0-10.9612,7.4013-19.1129,20.9867-19.1129h48.9101v11.8992h-48.9101c-5.4337,0-8.6207,3.1847-8.6207,8.3393s3.2808,8.2455,8.5269,8.2455h31.1997c13.7753,0,21.1765,6.4632,21.1765,19.6757,0,11.4302-6.9345,19.9571-21.1765,19.9571h-51.063Z"/>
    </g>
    <rect class="cls-1" x="883.7992" y="917.4852" width="29.878" height="16.0881" rx="8.0441" ry="8.0441"/>
  </g>
</svg>