<?xml version="1.0" encoding="UTF-8"?>
<svg id="Layer_1" data-name="Layer 1" xmlns="http://www.w3.org/2000/svg" viewBox="0 0 1920 1080">
  <defs>
    <style>
      .cls-1 {
        fill: #2b6cdf;
      }

      .cls-1, .cls-2, .cls-3 {
        stroke-width: 0px;
      }

      .cls-2 {
        fill: #1f1c1d;
      }

      .cls-3 {
        fill: #3c424e;
      }
    </style>
  </defs>
  <path class="cls-3" d="m1166.7326,541.2922c2.5946-9.448,10.5749-15.6323,20.7245-15.6323h16.9358c10.4506,0,18.4185,6.2315,21.0106,15.6323h12.5476c-2.6045-16.7218-15.6273-27.7843-33.5582-27.7843h-16.9358c-17.3563,0-30.6303,10.8659-33.2672,27.7843h12.5427Z"/>
  <path class="cls-3" d="m1224.3094,558.0915c-3.3409,7.759-10.6421,12.8313-19.916,12.8313h-16.9383c-9.065,0-16.3065-5.0723-19.6349-12.8313h-12.7466c4.0349,14.7542,16.5104,24.9834,32.3815,24.9834h16.9383c16.1846,0,28.6526-10.2291,32.6775-24.9834h-12.7615Z"/>
  <path class="cls-3" d="m826.4303,541.2922c2.5946-9.448,10.5749-15.6323,20.7245-15.6323h16.9358c10.4506,0,18.4185,6.2315,21.0106,15.6323h12.5476c-2.6045-16.7218-15.6273-27.7843-33.5582-27.7843h-16.9358c-17.3563,0-30.6303,10.8659-33.2672,27.7843h12.5427Z"/>
  <path class="cls-3" d="m884.0071,558.0915c-3.3409,7.759-10.6421,12.8313-19.916,12.8313h-16.9383c-9.065,0-16.3065-5.0723-19.6324-12.8313h-12.7491c4.0349,14.7542,16.5104,24.9834,32.3815,24.9834h16.9383c16.1846,0,28.6526-10.2291,32.6775-24.9834h-12.7615Z"/>
  <path class="cls-3" d="m732.1299,583.936v-12.152h52.1507c6.5051,0,10.1446-3.6394,10.1446-9.0923,0-5.933-3.6394-8.9928-10.1446-8.9928h-31.9611c-13.1074,0-21.2419-8.3261-21.2419-19.809,0-11.1944,7.5599-19.5205,21.4334-19.5205h49.9516v12.1521h-49.9516c-5.55,0-8.8037,3.2539-8.8037,8.5177s3.3508,8.4206,8.7092,8.4206h31.8641c14.0676,0,21.625,6.6022,21.625,20.0951,0,11.672-7.0823,20.3812-21.625,20.3812h-52.1507Z"/>
  <polygon class="cls-3" points="908.9919 583.936 908.9919 514.3693 921.1439 514.3693 921.1439 571.7839 967.9363 571.7839 967.9363 583.936 908.9919 583.936"/>
  <path class="cls-3" d="m1038.8546,514.3703h11.866v38.8494c0,21.528-10.6222,31.6726-37.6081,31.6726-26.7918,0-37.5085-10.1446-37.5085-31.6726v-38.8494h12.5328v38.8494c0,13.9705,6.2215,19.712,25.3589,19.712s25.3589-5.7415,25.3589-19.712v-38.8494Z"/>
  <polygon class="cls-3" points="1084.0318 583.936 1084.0318 526.5214 1057.623 526.5214 1057.623 514.3693 1122.595 514.3693 1122.595 526.5214 1096.1838 526.5214 1096.1838 583.936 1084.0318 583.936"/>
  <rect class="cls-3" x="1131.3146" y="514.3703" width="12.1521" height="69.5667"/>
  <path class="cls-3" d="m1260.132,533.0298v50.907h-11.58v-63.156c0-4.4977,2.3931-7.2739,6.2191-7.2739,1.8185,0,3.3509.6717,5.1693,2.4901l49.0885,48.7054v-50.907h11.5775v63.7282c0,4.5946-2.4876,7.2714-6.0275,7.2714-2.01,0-3.8285-.8582-5.55-2.5821l-48.8969-49.1831Z"/>
  <path class="cls-3" d="m1332.3897,583.936v-12.152h52.1481c6.5077,0,10.1472-3.6394,10.1472-9.0923,0-5.933-3.6394-8.9928-10.1472-8.9928h-31.9586c-13.1073,0-21.2419-8.3261-21.2419-19.809,0-11.1944,7.5599-19.5205,21.4335-19.5205h49.9516v12.1521h-49.9516c-5.55,0-8.8037,3.2539-8.8037,8.5177s3.3508,8.4206,8.7091,8.4206h31.8616c14.0701,0,21.6276,6.6022,21.6276,20.0951,0,11.672-7.0823,20.3812-21.6276,20.3812h-52.1481Z"/>
  <g>
    <path class="cls-3" d="m771.3008,487.3486c-6.0596,0-11.6592-1.1357-16.8018-3.4082s-9.6084-5.3818-13.3936-9.3281c-3.7871-3.9463-6.7383-8.6289-8.8496-14.0508-2.1133-5.4209-3.1689-11.2803-3.1689-17.5791,0-6.3779,1.0557-12.1982,3.1689-17.46,2.1113-5.2617,5.0625-9.7461,8.8496-13.4531,3.7852-3.707,8.251-6.5771,13.3936-8.6104s10.7422-3.0498,16.8018-3.0498h47.1172v15.1875h-47.1172c-3.9072,0-7.5146.6992-10.8223,2.0928-3.3096,1.3965-6.1592,3.3301-8.5508,5.7998-2.3916,2.4727-4.2656,5.4229-5.6201,8.8496-1.3564,3.4287-2.0332,7.2168-2.0332,11.3613,0,4.0654.6768,7.8525,2.0332,11.3604,1.3545,3.5088,3.2285,6.5176,5.6201,9.0283,2.3916,2.5117,5.2412,4.4844,8.5508,5.9199,3.3076,1.4346,6.915,2.1523,10.8223,2.1523h47.1172v15.1875h-47.1172Z"/>
    <path class="cls-3" d="m872.2305,487.3486v-33.0059l-46.1602-53.9336h20.4492l33.8428,40.0615,33.9629-40.0615h19.3721l-46.2793,53.9336v33.0059h-15.1875Z"/>
    <path class="cls-3" d="m943.9814,487.3486v-86.9395h63.6201c4.2246,0,8.0723.4785,11.54,1.4355s6.4375,2.373,8.9092,4.2451c2.4697,1.874,4.3838,4.2266,5.7402,7.0557,1.3545,2.8311,2.0332,6.0801,2.0332,9.7461,0,2.792-.3203,5.2227-.957,7.2949-.6387,2.0742-1.5156,3.8682-2.6309,5.3818-1.1172,1.5146-2.4121,2.75-3.8867,3.707-1.4766.9561-3.0098,1.6738-4.6045,2.1523,4.0664,1.2764,7.3555,3.5879,9.8662,6.9355,2.5117,3.3486,3.7666,7.5752,3.7666,12.6768,0,3.9873-.6572,7.5938-1.9727,10.8223s-3.1895,6-5.6201,8.3115c-2.4336,2.3125-5.3818,4.0859-8.8496,5.3213-3.4678,1.2373-7.3154,1.8535-11.54,1.8535h-65.4141Zm26.1895-37.7891v-12.7959h37.5498c4.3057,0,7.4932-.7959,9.5674-2.3916,2.0723-1.5938,3.1094-4.3047,3.1094-8.1318,0-2.3115-.4395-4.165-1.3154-5.5605-.8789-1.3945-2.1338-2.4707-3.7676-3.2295-1.6348-.7559-3.5869-1.2549-5.8594-1.4941s-4.8037-.3594-7.5938-.3594h-42.6924v56.5645h44.0078c5.501,0,10.0039-.8516,13.5137-2.5576,3.5068-1.7041,5.2617-4.6582,5.2617-8.8623,0-3.5693-1.1182-6.3232-3.3486-8.2666-2.2334-1.9434-5.501-2.915-9.8066-2.915h-38.626Z"/>
    <path class="cls-3" d="m1051.9678,487.3486v-86.9395h77.7305v15.1875h-62.543v56.5645h62.6631v15.1875h-77.8506Zm26.1895-37.7891v-12.7959h48.1924v12.7959h-48.1924Z"/>
    <path class="cls-3" d="m1224.7676,487.3486l-22.0039-24.1562h-32.5273v-13.3936h36.2344c5.501,0,9.6455-1.4746,12.4365-4.4248,2.79-2.9482,4.1855-7.2949,4.1855-13.0352s-1.4531-9.9648-4.3574-12.6758c-2.9033-2.71-6.9824-4.0664-12.2334-4.0664h-47.2676v71.752h-15.1875v-86.9395h62.4238c4.9424,0,9.3672.7383,13.2734,2.2129,3.9053,1.4756,7.2148,3.5879,9.9258,6.3379,2.71,2.751,4.7842,6.0801,6.2188,9.9854,1.4346,3.9072,2.1523,8.293,2.1523,13.1543,0,7.2559-1.5547,13.334-4.6641,18.2373-3.1084,4.9033-7.5332,8.4307-13.2734,10.583l26.1895,26.4287h-21.5254Z"/>
  </g>
  <path class="cls-2" d="m439.1192,476.9566c-11.075,0-20.0852-9.0102-20.0852-20.0851v-82.6368c0-11.0749,9.0102-20.0851,20.0852-20.0851h148.146c11.0774,0,20.0876,9.0102,20.0876,20.0851v45.2227h-89.1941v.107c-20.4906.9179-36.8792,17.8761-36.8792,38.5882v18.804h-42.1604Z"/>
  <path class="cls-1" d="m595.2968,546.3118v-35.2796c0-14.1571-12.2168-26.0878-28.2968-26.0878h-73.7384v-26.9038c0-14.6248,11.8983-26.5232,26.5231-26.5232h126.7897c14.6248,0,26.5232,11.8984,26.5232,26.5232v61.748c0,14.6248-11.8984,26.5231-26.5232,26.5231h-51.2776Z"/>
  <rect class="cls-3" x="448.2545" y="496.875" width="134.8248" height="86.199" rx="16.2094" ry="16.2094"/>
</svg>