<svg width="53" height="53" viewBox="0 0 53 53" fill="none" xmlns="http://www.w3.org/2000/svg">
<path d="M26.4059 41.8565H35.3582C36.2216 41.8565 37.0496 41.5136 37.6601 40.9031C38.2706 40.2926 38.6136 39.4645 38.6136 38.6012V17.4412L30.4751 9.30273H15.8259C14.9626 9.30273 14.1345 9.64571 13.524 10.2562C12.9135 10.8667 12.5706 11.6947 12.5706 12.5581V28.0212" stroke="#FF6F00" stroke-width="2.44154" stroke-linecap="round" stroke-linejoin="round"/>
<path d="M28.8474 9.30273V15.8135C28.8474 16.6769 29.1904 17.5049 29.8009 18.1154C30.4114 18.7259 31.2394 19.0689 32.1028 19.0689H38.6136" stroke="#FF6F00" stroke-width="2.44154" stroke-linecap="round" stroke-linejoin="round"/>
<path d="M27.8346 31.4813C28.1557 31.1603 28.4104 30.7791 28.5841 30.3597C28.7579 29.9402 28.8473 29.4906 28.8473 29.0366C28.8473 28.5825 28.7579 28.1329 28.5841 27.7134C28.4104 27.294 28.1557 26.9128 27.8346 26.5918C27.5136 26.2707 27.1324 26.016 26.713 25.8423C26.2935 25.6685 25.8439 25.5791 25.3898 25.5791C24.9358 25.5791 24.4862 25.6685 24.0667 25.8423C23.6472 26.016 23.2661 26.2707 22.945 26.5918L14.7903 34.7498C14.4033 35.1365 14.1201 35.6146 13.9667 36.1398L12.6043 40.8113C12.5635 40.9513 12.561 41.0998 12.5972 41.2411C12.6334 41.3825 12.707 41.5115 12.8101 41.6146C12.9133 41.7178 13.0423 41.7913 13.1836 41.8275C13.325 41.8637 13.4734 41.8613 13.6135 41.8204L18.285 40.4581C18.8102 40.3047 19.2882 40.0214 19.675 39.6345L27.8346 31.4813Z" stroke="#FF6F00" stroke-width="2.44154" stroke-linecap="round" stroke-linejoin="round"/>
</svg>
