<svg width="53" height="53" viewBox="0 0 53 53" fill="none" xmlns="http://www.w3.org/2000/svg">
<path d="M26.6817 42.6564C22.3648 42.6564 18.2247 40.9415 15.1722 37.889C12.1197 34.8364 10.4048 30.6963 10.4048 26.3794C10.4048 22.0625 12.1197 17.9224 15.1722 14.8699C18.2247 11.8174 22.3648 10.1025 26.6817 10.1025C30.9986 10.1025 35.1387 11.6459 38.1912 14.3932C41.2437 17.1405 42.9586 20.8665 42.9586 24.7518C42.9586 26.9102 42.1012 28.9803 40.5749 30.5065C39.0486 32.0328 36.9786 32.8902 34.8201 32.8902H31.1578C30.6288 32.8902 30.1103 33.0375 29.6603 33.3156C29.2103 33.5937 28.8467 33.9917 28.6101 34.4648C28.3735 34.9379 28.2734 35.4676 28.3209 35.9945C28.3684 36.5213 28.5617 37.0245 28.8791 37.4477L29.3674 38.0988C29.6848 38.522 29.8781 39.0252 29.9256 39.5521C29.9731 40.0789 29.8729 40.6086 29.6364 41.0818C29.3998 41.5549 29.0361 41.9528 28.5861 42.2309C28.1361 42.509 27.6176 42.6564 27.0886 42.6564H26.6817Z" stroke="#FF0004" stroke-width="2.44154" stroke-linecap="round" stroke-linejoin="round"/>
<path d="M29.1233 18.2441C29.573 18.2441 29.9375 17.8796 29.9375 17.4299C29.9375 16.9803 29.573 16.6157 29.1233 16.6157C28.6737 16.6157 28.3091 16.9803 28.3091 17.4299C28.3091 17.8796 28.6737 18.2441 29.1233 18.2441Z" fill="#FF0004" stroke="#FF0004" stroke-width="2.44154" stroke-linecap="round" stroke-linejoin="round"/>
<path d="M35.6338 24.7534C36.0835 24.7534 36.448 24.3889 36.448 23.9392C36.448 23.4895 36.0835 23.125 35.6338 23.125C35.1842 23.125 34.8196 23.4895 34.8196 23.9392C34.8196 24.3889 35.1842 24.7534 35.6338 24.7534Z" fill="#FF0004" stroke="#FF0004" stroke-width="2.44154" stroke-linecap="round" stroke-linejoin="round"/>
<path d="M17.7294 28.0073C18.1791 28.0073 18.5436 27.6428 18.5436 27.1931C18.5436 26.7434 18.1791 26.3789 17.7294 26.3789C17.2798 26.3789 16.9152 26.7434 16.9152 27.1931C16.9152 27.6428 17.2798 28.0073 17.7294 28.0073Z" fill="#FF0004" stroke="#FF0004" stroke-width="2.44154" stroke-linecap="round" stroke-linejoin="round"/>
<path d="M20.9847 19.8706C21.4343 19.8706 21.7989 19.5061 21.7989 19.0564C21.7989 18.6067 21.4343 18.2422 20.9847 18.2422C20.535 18.2422 20.1705 18.6067 20.1705 19.0564C20.1705 19.5061 20.535 19.8706 20.9847 19.8706Z" fill="#FF0004" stroke="#FF0004" stroke-width="2.44154" stroke-linecap="round" stroke-linejoin="round"/>
</svg>
