<svg width="53" height="53" viewBox="0 0 53 53" fill="none" xmlns="http://www.w3.org/2000/svg">
<path d="M30.1979 14.7213C30.3746 14.8982 30.5953 15.0248 30.8373 15.088C31.0792 15.1512 31.3337 15.1487 31.5743 15.0808C31.815 15.0129 32.0332 14.882 32.2065 14.7017C32.3797 14.5213 32.5017 14.2981 32.5599 14.0549C32.7059 13.4473 33.0111 12.8897 33.4443 12.4393C33.8774 11.989 34.4227 11.6622 35.0241 11.4927C35.6255 11.3232 36.2612 11.3171 36.8657 11.4749C37.4703 11.6328 38.0218 11.949 38.4636 12.3908C38.9053 12.8327 39.2213 13.3844 39.3789 13.989C39.5366 14.5936 39.5302 15.2293 39.3605 15.8306C39.1908 16.432 38.8639 16.9772 38.4134 17.4101C37.9629 17.8431 37.4052 18.1482 36.7976 18.2939C36.5544 18.3521 36.3311 18.4742 36.1508 18.6474C35.9704 18.8207 35.8396 19.0389 35.7717 19.2795C35.7038 19.5202 35.7013 19.7746 35.7645 20.0166C35.8277 20.2586 35.9542 20.4793 36.1312 20.656L38.4975 23.0209C38.8126 23.3361 39.0627 23.7102 39.2332 24.122C39.4038 24.5338 39.4916 24.9752 39.4916 25.4209C39.4916 25.8667 39.4038 26.308 39.2332 26.7198C39.0627 27.1316 38.8126 27.5058 38.4975 27.821L36.1312 30.1873C35.9544 30.3642 35.7337 30.4908 35.4917 30.554C35.2498 30.6171 34.9954 30.6147 34.7547 30.5468C34.514 30.4789 34.2958 30.348 34.1225 30.1677C33.9493 29.9873 33.8273 29.764 33.7691 29.5208C33.6231 28.9133 33.3179 28.3556 32.8848 27.9053C32.4516 27.455 31.9063 27.1282 31.3049 26.9587C30.7035 26.7892 30.0678 26.7831 29.4633 26.9409C28.8587 27.0988 28.3072 27.4149 27.8654 27.8568C27.4237 28.2987 27.1077 28.8504 26.9501 29.455C26.7924 30.0596 26.7988 30.6953 26.9685 31.2966C27.1382 31.8979 27.4651 32.4432 27.9156 32.8761C28.3661 33.3091 28.9238 33.6142 29.5314 33.7599C29.7746 33.8181 29.9979 33.9401 30.1782 34.1134C30.3586 34.2866 30.4894 34.5048 30.5573 34.7455C30.6252 34.9862 30.6277 35.2406 30.5645 35.4826C30.5013 35.7245 30.3748 35.9453 30.1979 36.122L27.8316 38.4869C27.5164 38.8021 27.1422 39.0521 26.7304 39.2227C26.3186 39.3932 25.8773 39.481 25.4315 39.481C24.9858 39.481 24.5444 39.3932 24.1326 39.2227C23.7208 39.0521 23.3467 38.8021 23.0315 38.4869L20.6652 36.1206C20.4884 35.9437 20.2677 35.8171 20.0258 35.7539C19.7838 35.6907 19.5294 35.6932 19.2887 35.7611C19.048 35.829 18.8298 35.9599 18.6566 36.1402C18.4833 36.3205 18.3613 36.5438 18.3031 36.787C18.1572 37.3946 17.8519 37.9522 17.4188 38.4026C16.9857 38.8529 16.4403 39.1796 15.8389 39.3491C15.2376 39.5187 14.6019 39.5248 13.9973 39.3669C13.3928 39.2091 12.8412 38.8929 12.3995 38.451C11.9577 38.0092 11.6418 37.4575 11.4841 36.8529C11.3264 36.2483 11.3328 35.6126 11.5025 35.0113C11.6722 34.4099 11.9991 33.8647 12.4496 33.4317C12.9001 32.9988 13.4579 32.6937 14.0654 32.5479C14.3086 32.4897 14.5319 32.3677 14.7123 32.1945C14.8926 32.0212 15.0235 31.803 15.0914 31.5624C15.1593 31.3217 15.1617 31.0672 15.0986 30.8253C15.0354 30.5833 14.9088 30.3626 14.7319 30.1859L12.3656 27.821C12.0504 27.5058 11.8004 27.1316 11.6298 26.7198C11.4592 26.308 11.3714 25.8667 11.3714 25.4209C11.3714 24.9752 11.4592 24.5338 11.6298 24.122C11.8004 23.7102 12.0504 23.3361 12.3656 23.0209L14.7319 20.6546C14.9086 20.4777 15.1293 20.3511 15.3713 20.2879C15.6132 20.2247 15.8677 20.2272 16.1084 20.2951C16.349 20.363 16.5672 20.4939 16.7405 20.6742C16.9137 20.8546 17.0357 21.0778 17.094 21.3211C17.2399 21.9286 17.5452 22.4862 17.9783 22.9366C18.4114 23.3869 18.9567 23.7137 19.5581 23.8832C20.1595 24.0527 20.7952 24.0588 21.3998 23.901C22.0043 23.7431 22.5559 23.427 22.9976 22.9851C23.4393 22.5432 23.7553 21.9915 23.913 21.3869C24.0706 20.7823 24.0643 20.1466 23.8946 19.5453C23.7249 18.944 23.3979 18.3987 22.9474 17.9658C22.497 17.5328 21.9392 17.2277 21.3316 17.082C21.0884 17.0238 20.8651 16.9018 20.6848 16.7285C20.5045 16.5553 20.3736 16.337 20.3057 16.0964C20.2378 15.8557 20.2353 15.6013 20.2985 15.3593C20.3617 15.1174 20.4883 14.8966 20.6652 14.7199L23.0315 12.355C23.3467 12.0398 23.7208 11.7898 24.1326 11.6192C24.5444 11.4486 24.9858 11.3608 25.4315 11.3608C25.8773 11.3608 26.3186 11.4486 26.7304 11.6192C27.1422 11.7898 27.5164 12.0398 27.8316 12.355L30.1979 14.7213Z" stroke="#6F00FF" stroke-width="2.109" stroke-linecap="round" stroke-linejoin="round"/>
</svg>
