<svg width="80" height="80" viewBox="0 0 80 80" fill="none" xmlns="http://www.w3.org/2000/svg">
<path d="M38.3202 53.3325C35.3936 53.3414 32.5706 52.25 30.4111 50.2749C28.2515 48.2997 26.9131 45.5851 26.6614 42.6694C26.4097 39.7536 27.263 36.8498 29.0521 34.5338C30.8412 32.2177 33.4354 30.6587 36.3202 30.1659C45.8202 28.3325 48.3202 27.4659 51.6535 23.3325C53.3202 26.6659 54.9869 30.2992 54.9869 36.6659C54.9869 45.8325 47.0202 53.3325 38.3202 53.3325Z" stroke="#247900" stroke-width="2.5" stroke-linecap="round" stroke-linejoin="round"/>
<path d="M23.3203 55.0005C23.3203 50.0005 26.4036 46.0672 31.787 45.0005C35.8203 44.2005 39.987 41.6672 41.6536 40.0005" stroke="#247900" stroke-width="2.5" stroke-linecap="round" stroke-linejoin="round"/>
</svg>
