<svg width="80" height="80" viewBox="0 0 80 80" fill="none" xmlns="http://www.w3.org/2000/svg">
<path d="M53.321 41.6666C53.321 49.9999 47.4876 54.1666 40.5543 56.5833C40.1912 56.7063 39.7969 56.7004 39.4376 56.5666C32.4876 54.1666 26.6543 49.9999 26.6543 41.6666V29.9999C26.6543 29.5579 26.8299 29.134 27.1425 28.8214C27.455 28.5089 27.8789 28.3333 28.321 28.3333C31.6543 28.3333 35.821 26.3333 38.721 23.7999C39.0741 23.4983 39.5232 23.3325 39.9876 23.3325C40.452 23.3325 40.9012 23.4983 41.2543 23.7999C44.171 26.3499 48.321 28.3333 51.6543 28.3333C52.0963 28.3333 52.5203 28.5089 52.8328 28.8214C53.1454 29.134 53.321 29.5579 53.321 29.9999V41.6666Z" stroke="#0026FF" stroke-width="2.5" stroke-linecap="round" stroke-linejoin="round"/>
<path d="M34.9873 39.9993L38.3206 43.3327L44.9873 36.666" stroke="#0026FF" stroke-width="2.5" stroke-linecap="round" stroke-linejoin="round"/>
</svg>
