<svg width="80" height="80" viewBox="0 0 80 80" fill="none" xmlns="http://www.w3.org/2000/svg">
<path d="M38.3203 31.666L33.3203 39.9993H39.987L34.987 48.3327" stroke="#FF0000" stroke-width="2.5" stroke-linecap="round" stroke-linejoin="round"/>
<path d="M44.7477 30H46.6544C47.5384 30 48.3863 30.3512 49.0114 30.9763C49.6365 31.6014 49.9877 32.4493 49.9877 33.3333V46.6667C49.9877 47.5507 49.6365 48.3986 49.0114 49.0237C48.3863 49.6488 47.5384 50 46.6544 50H41.7627" stroke="#FF0000" stroke-width="2.5" stroke-linecap="round" stroke-linejoin="round"/>
<path d="M56.6543 43.3327V36.666" stroke="#FF0000" stroke-width="2.5" stroke-linecap="round" stroke-linejoin="round"/>
<path d="M28.5546 50H26.6546C25.7706 50 24.9227 49.6488 24.2976 49.0237C23.6725 48.3986 23.3213 47.5507 23.3213 46.6667V33.3333C23.3213 32.4493 23.6725 31.6014 24.2976 30.9763C24.9227 30.3512 25.7706 30 26.6546 30H31.548" stroke="#FF0000" stroke-width="2.5" stroke-linecap="round" stroke-linejoin="round"/>
</svg>
