<svg width="80" height="80" viewBox="0 0 80 80" fill="none" xmlns="http://www.w3.org/2000/svg">
<path d="M24.9873 43.3338H29.9873C30.8714 43.3338 31.7192 43.685 32.3443 44.3101C32.9694 44.9353 33.3206 45.7831 33.3206 46.6672V51.6672C33.3206 52.5512 32.9694 53.3991 32.3443 54.0242C31.7192 54.6493 30.8714 55.0005 29.9873 55.0005H28.3206C27.4366 55.0005 26.5887 54.6493 25.9636 54.0242C25.3385 53.3991 24.9873 52.5512 24.9873 51.6672V40.0005C24.9873 36.0222 26.5677 32.2069 29.3807 29.3939C32.1937 26.5808 36.0091 25.0005 39.9873 25.0005C43.9656 25.0005 47.7809 26.5808 50.5939 29.3939C53.407 32.2069 54.9873 36.0222 54.9873 40.0005V51.6672C54.9873 52.5512 54.6361 53.3991 54.011 54.0242C53.3859 54.6493 52.538 55.0005 51.654 55.0005H49.9873C49.1032 55.0005 48.2554 54.6493 47.6303 54.0242C47.0052 53.3991 46.654 52.5512 46.654 51.6672V46.6672C46.654 45.7831 47.0052 44.9353 47.6303 44.3101C48.2554 43.685 49.1032 43.3338 49.9873 43.3338H54.9873" stroke="#FFCE00" stroke-width="2.5" stroke-linecap="round" stroke-linejoin="round"/>
</svg>
