<svg width="80" height="80" viewBox="0 0 80 80" fill="none" xmlns="http://www.w3.org/2000/svg">
<path d="M41.3203 52.666C41.7429 52.9829 42.2346 53.1949 42.7552 53.2844C43.2757 53.374 43.8101 53.3385 44.3142 53.1811C44.8184 53.0236 45.2779 52.7485 45.6549 52.3786C46.0319 52.0087 46.3156 51.5545 46.4826 51.0534C46.6496 50.5524 46.6952 50.0188 46.6155 49.4967C46.5359 48.9745 46.3333 48.4788 46.0245 48.0503C45.7156 47.6218 45.3094 47.2729 44.8392 47.0322C44.3691 46.7915 43.8485 46.666 43.3203 46.666H23.3203" stroke="#00B7FF" stroke-width="2.5" stroke-linecap="round" stroke-linejoin="round"/>
<path d="M49.1536 33.3327C49.5798 32.7645 50.1441 32.3147 50.793 32.0259C51.4419 31.7372 52.1538 31.6191 52.8612 31.6829C53.5685 31.7466 54.2479 31.9902 54.8346 32.3903C55.4214 32.7905 55.8961 33.334 56.2138 33.9693C56.5314 34.6045 56.6814 35.3104 56.6494 36.02C56.6175 36.7295 56.4047 37.4191 56.0314 38.0232C55.658 38.6274 55.1363 39.1261 54.516 39.4719C53.8957 39.8178 53.1972 39.9993 52.487 39.9993H23.3203" stroke="#00B7FF" stroke-width="2.5" stroke-linecap="round" stroke-linejoin="round"/>
<path d="M36.3203 27.3337C36.7429 27.0168 37.2346 26.8048 37.7552 26.7152C38.2757 26.6257 38.8101 26.6611 39.3142 26.8186C39.8184 26.9761 40.2779 27.2511 40.6549 27.621C41.0319 27.991 41.3156 28.4452 41.4826 28.9462C41.6496 29.4473 41.6952 29.9809 41.6155 30.503C41.5359 31.0252 41.3333 31.5209 41.0245 31.9494C40.7156 32.3778 40.3094 32.7268 39.8392 32.9675C39.3691 33.2081 38.8485 33.3337 38.3203 33.3337H23.3203" stroke="#00B7FF" stroke-width="2.5" stroke-linecap="round" stroke-linejoin="round"/>
</svg>
