<svg width="80" height="80" viewBox="0 0 80 80" fill="none" xmlns="http://www.w3.org/2000/svg">
<path d="M51.654 31.6667V26.6667C51.654 26.2246 51.4784 25.8007 51.1658 25.4882C50.8533 25.1756 50.4293 25 49.9873 25H28.3206C27.4366 25 26.5887 25.3512 25.9636 25.9763C25.3385 26.6014 24.9873 27.4493 24.9873 28.3333C24.9873 29.2174 25.3385 30.0652 25.9636 30.6904C26.5887 31.3155 27.4366 31.6667 28.3206 31.6667H53.3206C53.7627 31.6667 54.1866 31.8423 54.4992 32.1548C54.8117 32.4674 54.9873 32.8913 54.9873 33.3333V40M54.9873 40H49.9873C49.1033 40 48.2554 40.3512 47.6303 40.9763C47.0052 41.6014 46.654 42.4493 46.654 43.3333C46.654 44.2174 47.0052 45.0652 47.6303 45.6904C48.2554 46.3155 49.1033 46.6667 49.9873 46.6667H54.9873C55.4293 46.6667 55.8533 46.4911 56.1658 46.1785C56.4784 45.8659 56.654 45.442 56.654 45V41.6667C56.654 41.2246 56.4784 40.8007 56.1658 40.4882C55.8533 40.1756 55.4293 40 54.9873 40Z" stroke="#FF5900" stroke-width="2.5" stroke-linecap="round" stroke-linejoin="round"/>
<path d="M24.9873 28.333V51.6663C24.9873 52.5504 25.3385 53.3982 25.9636 54.0234C26.5887 54.6485 27.4366 54.9997 28.3206 54.9997H53.3206C53.7627 54.9997 54.1866 54.8241 54.4991 54.5115C54.8117 54.199 54.9873 53.775 54.9873 53.333V46.6663" stroke="#FF5900" stroke-width="2.5" stroke-linecap="round" stroke-linejoin="round"/>
</svg>
