<svg width="80" height="80" viewBox="0 0 80 80" fill="none" xmlns="http://www.w3.org/2000/svg">
<path d="M53.321 41.6671C53.321 50.0004 47.4876 54.1671 40.5543 56.5838C40.1912 56.7068 39.7969 56.7009 39.4376 56.5671C32.4876 54.1671 26.6543 50.0004 26.6543 41.6671V30.0004C26.6543 29.5584 26.8299 29.1345 27.1425 28.8219C27.455 28.5094 27.8789 28.3338 28.321 28.3338C31.6543 28.3338 35.821 26.3338 38.721 23.8004C39.0741 23.4988 39.5232 23.333 39.9876 23.333C40.452 23.333 40.9012 23.4988 41.2543 23.8004C44.171 26.3504 48.321 28.3338 51.6543 28.3338C52.0963 28.3338 52.5203 28.5094 52.8328 28.8219C53.1454 29.1345 53.321 29.5584 53.321 30.0004V41.6671Z" stroke="#0022FF" stroke-width="2.5" stroke-linecap="round" stroke-linejoin="round"/>
<path d="M34.9873 39.9993L38.3206 43.3327L44.9873 36.666" stroke="#0022FF" stroke-width="2.5" stroke-linecap="round" stroke-linejoin="round"/>
</svg>
