<svg width="80" height="80" viewBox="0 0 80 80" fill="none" xmlns="http://www.w3.org/2000/svg">
<path d="M29.9873 56.6659V26.6659C29.9873 25.7818 30.3385 24.934 30.9636 24.3088C31.5887 23.6837 32.4366 23.3325 33.3206 23.3325H46.654C47.538 23.3325 48.3859 23.6837 49.011 24.3088C49.6361 24.934 49.9873 25.7818 49.9873 26.6659V56.6659H29.9873Z" stroke="#FF8800" stroke-width="2.5" stroke-linecap="round" stroke-linejoin="round"/>
<path d="M29.988 40H26.6546C25.7706 40 24.9227 40.3512 24.2976 40.9763C23.6725 41.6014 23.3213 42.4493 23.3213 43.3333V53.3333C23.3213 54.2174 23.6725 55.0652 24.2976 55.6904C24.9227 56.3155 25.7706 56.6667 26.6546 56.6667H29.988" stroke="#FF8800" stroke-width="2.5" stroke-linecap="round" stroke-linejoin="round"/>
<path d="M49.9873 35H53.3206C54.2047 35 55.0525 35.3512 55.6777 35.9763C56.3028 36.6014 56.654 37.4493 56.654 38.3333V53.3333C56.654 54.2174 56.3028 55.0652 55.6777 55.6904C55.0525 56.3155 54.2047 56.6667 53.3206 56.6667H49.9873" stroke="#FF8800" stroke-width="2.5" stroke-linecap="round" stroke-linejoin="round"/>
<path d="M36.6543 30H43.321" stroke="#FF8800" stroke-width="2.5" stroke-linecap="round" stroke-linejoin="round"/>
<path d="M36.6543 36.666H43.321" stroke="#FF8800" stroke-width="2.5" stroke-linecap="round" stroke-linejoin="round"/>
<path d="M36.6543 43.333H43.321" stroke="#FF8800" stroke-width="2.5" stroke-linecap="round" stroke-linejoin="round"/>
<path d="M36.6543 49.999H43.321" stroke="#FF8800" stroke-width="2.5" stroke-linecap="round" stroke-linejoin="round"/>
</svg>
