<svg width="80" height="80" viewBox="0 0 80 80" fill="none" xmlns="http://www.w3.org/2000/svg">
<path d="M33.3206 25H28.3206C27.4366 25 26.5887 25.3512 25.9636 25.9763C25.3385 26.6014 24.9873 27.4493 24.9873 28.3333V33.3333" stroke="#FF6200" stroke-width="2.5" stroke-linecap="round" stroke-linejoin="round"/>
<path d="M54.9867 33.3333V28.3333C54.9867 27.4493 54.6355 26.6014 54.0103 25.9763C53.3852 25.3512 52.5374 25 51.6533 25H46.6533" stroke="#FF6200" stroke-width="2.5" stroke-linecap="round" stroke-linejoin="round"/>
<path d="M24.9873 46.666V51.666C24.9873 52.5501 25.3385 53.3979 25.9636 54.023C26.5887 54.6482 27.4366 54.9993 28.3206 54.9993H33.3206" stroke="#FF6200" stroke-width="2.5" stroke-linecap="round" stroke-linejoin="round"/>
<path d="M46.6533 54.9993H51.6533C52.5374 54.9993 53.3852 54.6482 54.0103 54.023C54.6355 53.3979 54.9867 52.5501 54.9867 51.666V46.666" stroke="#FF6200" stroke-width="2.5" stroke-linecap="round" stroke-linejoin="round"/>
</svg>
