<svg width="80" height="80" viewBox="0 0 80 80" fill="none" xmlns="http://www.w3.org/2000/svg">
<path d="M41.3704 23.6331C40.9361 23.435 40.4644 23.3325 39.9871 23.3325C39.5098 23.3325 39.038 23.435 38.6037 23.6331L24.3204 30.1331C24.0247 30.2635 23.7732 30.4771 23.5967 30.7479C23.4202 31.0186 23.3262 31.3349 23.3262 31.6581C23.3262 31.9813 23.4202 32.2976 23.5967 32.5684C23.7732 32.8391 24.0247 33.0527 24.3204 33.1831L38.6204 39.6998C39.0547 39.8979 39.5264 40.0004 40.0037 40.0004C40.4811 40.0004 40.9528 39.8979 41.3871 39.6998L55.6871 33.1998C55.9828 33.0694 56.2343 32.8558 56.4108 32.585C56.5873 32.3143 56.6813 31.998 56.6813 31.6748C56.6813 31.3516 56.5873 31.0353 56.4108 30.7645C56.2343 30.4938 55.9828 30.2802 55.6871 30.1498L41.3704 23.6331Z" stroke="#FF8000" stroke-width="2.5" stroke-linecap="round" stroke-linejoin="round"/>
<path d="M23.3213 40.0005C23.3205 40.3193 23.4112 40.6316 23.5825 40.9004C23.7538 41.1692 23.9987 41.3833 24.288 41.5172L38.6213 48.0338C39.0533 48.2294 39.5221 48.3306 39.9963 48.3306C40.4705 48.3306 40.9393 48.2294 41.3713 48.0338L55.6713 41.5338C55.9663 41.4012 56.2164 41.1856 56.391 40.9134C56.5656 40.6411 56.6572 40.3239 56.6546 40.0005" stroke="#FF8000" stroke-width="2.5" stroke-linecap="round" stroke-linejoin="round"/>
<path d="M23.3213 48.3335C23.3205 48.6523 23.4112 48.9646 23.5825 49.2334C23.7538 49.5022 23.9987 49.7163 24.288 49.8502L38.6213 56.3668C39.0533 56.5624 39.5221 56.6636 39.9963 56.6636C40.4705 56.6636 40.9393 56.5624 41.3713 56.3668L55.6713 49.8668C55.9663 49.7342 56.2164 49.5187 56.391 49.2464C56.5656 48.9741 56.6572 48.6569 56.6546 48.3335" stroke="#FF8000" stroke-width="2.5" stroke-linecap="round" stroke-linejoin="round"/>
</svg>
