<svg width="80" height="80" viewBox="0 0 80 80" fill="none" xmlns="http://www.w3.org/2000/svg">
<path d="M39.9873 53.3335V56.6668" stroke="#4C5336" stroke-width="2.5" stroke-linecap="round" stroke-linejoin="round"/>
<path d="M39.9873 23.3325V26.6659" stroke="#4C5336" stroke-width="2.5" stroke-linecap="round" stroke-linejoin="round"/>
<path d="M48.3213 53.3335V56.6668" stroke="#4C5336" stroke-width="2.5" stroke-linecap="round" stroke-linejoin="round"/>
<path d="M48.3213 23.3325V26.6659" stroke="#4C5336" stroke-width="2.5" stroke-linecap="round" stroke-linejoin="round"/>
<path d="M23.3213 40.0005H26.6546" stroke="#4C5336" stroke-width="2.5" stroke-linecap="round" stroke-linejoin="round"/>
<path d="M23.3213 48.3335H26.6546" stroke="#4C5336" stroke-width="2.5" stroke-linecap="round" stroke-linejoin="round"/>
<path d="M23.3213 31.666H26.6546" stroke="#4C5336" stroke-width="2.5" stroke-linecap="round" stroke-linejoin="round"/>
<path d="M53.3203 40.0005H56.6536" stroke="#4C5336" stroke-width="2.5" stroke-linecap="round" stroke-linejoin="round"/>
<path d="M53.3203 48.3335H56.6536" stroke="#4C5336" stroke-width="2.5" stroke-linecap="round" stroke-linejoin="round"/>
<path d="M53.3203 31.666H56.6536" stroke="#4C5336" stroke-width="2.5" stroke-linecap="round" stroke-linejoin="round"/>
<path d="M31.6543 53.3335V56.6668" stroke="#4C5336" stroke-width="2.5" stroke-linecap="round" stroke-linejoin="round"/>
<path d="M31.6543 23.3325V26.6659" stroke="#4C5336" stroke-width="2.5" stroke-linecap="round" stroke-linejoin="round"/>
<path d="M49.9876 26.667H29.9876C28.1467 26.667 26.6543 28.1594 26.6543 30.0003V50.0003C26.6543 51.8413 28.1467 53.3337 29.9876 53.3337H49.9876C51.8286 53.3337 53.321 51.8413 53.321 50.0003V30.0003C53.321 28.1594 51.8286 26.667 49.9876 26.667Z" stroke="#4C5336" stroke-width="2.5" stroke-linecap="round" stroke-linejoin="round"/>
<path d="M44.987 33.333H34.987C34.0665 33.333 33.3203 34.0792 33.3203 34.9997V44.9997C33.3203 45.9201 34.0665 46.6663 34.987 46.6663H44.987C45.9075 46.6663 46.6536 45.9201 46.6536 44.9997V34.9997C46.6536 34.0792 45.9075 33.333 44.987 33.333Z" stroke="#4C5336" stroke-width="2.5" stroke-linecap="round" stroke-linejoin="round"/>
</svg>
