<svg width="80" height="80" viewBox="0 0 80 80" fill="none" xmlns="http://www.w3.org/2000/svg">
<path d="M26.6548 43.333C26.3394 43.334 26.0302 43.2456 25.763 43.0779C25.4959 42.9102 25.2818 42.6702 25.1457 42.3857C25.0095 42.1012 24.9569 41.7839 24.9939 41.4707C25.0309 41.1575 25.1561 40.8612 25.3548 40.6163L41.8548 23.6163C41.9785 23.4734 42.1472 23.3769 42.3331 23.3425C42.5189 23.3081 42.711 23.338 42.8777 23.4271C43.0443 23.5163 43.1757 23.6594 43.2503 23.8331C43.3249 24.0068 43.3382 24.2007 43.2881 24.383L40.0881 34.4163C39.9937 34.6688 39.9621 34.9405 39.9958 35.208C40.0295 35.4754 40.1275 35.7308 40.2816 35.952C40.4356 36.1732 40.6411 36.3538 40.8802 36.4782C41.1194 36.6026 41.3852 36.6672 41.6548 36.6663H53.3214C53.6368 36.6652 53.9461 36.7536 54.2132 36.9213C54.4803 37.089 54.6944 37.329 54.8305 37.6135C54.9667 37.898 55.0193 38.2153 54.9823 38.5285C54.9453 38.8417 54.8201 39.138 54.6214 39.383L38.1214 56.383C37.9977 56.5258 37.829 56.6224 37.6431 56.6567C37.4573 56.6911 37.2652 56.6613 37.0986 56.5721C36.9319 56.483 36.8005 56.3398 36.7259 56.1661C36.6513 55.9924 36.638 55.7985 36.6881 55.6163L39.8881 45.583C39.9825 45.3304 40.0142 45.0588 39.9805 44.7913C39.9468 44.5238 39.8487 44.2685 39.6946 44.0472C39.5406 43.826 39.3352 43.6454 39.096 43.521C38.8568 43.3966 38.591 43.3321 38.3214 43.333H26.6548Z" stroke="#40FF00" stroke-width="2.5" stroke-linecap="round" stroke-linejoin="round"/>
</svg>
