<svg width="80" height="80" viewBox="0 0 80 80" fill="none" xmlns="http://www.w3.org/2000/svg">
<path d="M44.4868 30.5C44.1814 30.8115 44.0104 31.2304 44.0104 31.6666C44.0104 32.1029 44.1814 32.5218 44.4868 32.8333L47.1534 35.5C47.465 35.8053 47.8839 35.9764 48.3201 35.9764C48.7564 35.9764 49.1752 35.8053 49.4868 35.5L54.6634 30.325C55.1968 29.7883 56.1018 29.9583 56.3018 30.6883C56.8053 32.5198 56.7769 34.4567 56.2197 36.2726C55.6626 38.0885 54.5998 39.7081 53.1558 40.942C51.7117 42.1759 49.9461 42.973 48.0655 43.2401C46.185 43.5071 44.2673 43.2331 42.5368 42.45L29.3534 55.6333C28.6904 56.2961 27.7912 56.6684 26.8537 56.6682C25.9162 56.6681 25.0171 56.2955 24.3543 55.6325C23.6915 54.9694 23.3192 54.0702 23.3193 53.1327C23.3195 52.1952 23.6921 51.2961 24.3551 50.6333L37.5384 37.45C36.7554 35.7195 36.4813 33.8018 36.7483 31.9212C37.0154 30.0407 37.8125 28.2751 39.0464 26.831C40.2803 25.3869 41.8999 24.3242 43.7158 23.767C45.5317 23.2099 47.4687 23.1814 49.3001 23.685C50.0301 23.885 50.2001 24.7883 49.6651 25.325L44.4868 30.5Z" stroke="#00FF51" stroke-width="2.5" stroke-linecap="round" stroke-linejoin="round"/>
</svg>
