<svg width="80" height="80" viewBox="0 0 80 80" fill="none" xmlns="http://www.w3.org/2000/svg">
<path d="M44.987 23.333H34.987C34.0665 23.333 33.3203 24.0792 33.3203 24.9997V28.333C33.3203 29.2535 34.0665 29.9997 34.987 29.9997H44.987C45.9075 29.9997 46.6536 29.2535 46.6536 28.333V24.9997C46.6536 24.0792 45.9075 23.333 44.987 23.333Z" stroke="#FF0004" stroke-width="2.5" stroke-linecap="round" stroke-linejoin="round"/>
<path d="M46.6543 26.667H49.9876C50.8717 26.667 51.7195 27.0182 52.3447 27.6433C52.9698 28.2684 53.321 29.1163 53.321 30.0003V53.3337C53.321 54.2177 52.9698 55.0656 52.3447 55.6907C51.7195 56.3158 50.8717 56.667 49.9876 56.667H29.9876C29.1036 56.667 28.2557 56.3158 27.6306 55.6907C27.0055 55.0656 26.6543 54.2177 26.6543 53.3337V30.0003C26.6543 29.1163 27.0055 28.2684 27.6306 27.6433C28.2557 27.0182 29.1036 26.667 29.9876 26.667H33.321" stroke="#FF0004" stroke-width="2.5" stroke-linecap="round" stroke-linejoin="round"/>
<path d="M39.9873 38.333H46.654" stroke="#FF0004" stroke-width="2.5" stroke-linecap="round" stroke-linejoin="round"/>
<path d="M39.9873 46.666H46.654" stroke="#FF0004" stroke-width="2.5" stroke-linecap="round" stroke-linejoin="round"/>
<path d="M33.3203 38.333H33.337" stroke="#FF0004" stroke-width="2.5" stroke-linecap="round" stroke-linejoin="round"/>
<path d="M33.3203 46.666H33.337" stroke="#FF0004" stroke-width="2.5" stroke-linecap="round" stroke-linejoin="round"/>
</svg>
