<svg width="80" height="80" viewBox="0 0 80 80" fill="none" xmlns="http://www.w3.org/2000/svg">
<path d="M45.7819 41.4834L48.3069 55.6934C48.3352 55.8607 48.3117 56.0327 48.2396 56.1863C48.1675 56.3399 48.0502 56.4679 47.9034 56.5531C47.7567 56.6382 47.5874 56.6766 47.4182 56.6629C47.2491 56.6493 47.0881 56.5843 46.9569 56.4767L40.9902 51.9984C40.7022 51.7832 40.3523 51.6669 39.9927 51.6669C39.6332 51.6669 39.2833 51.7832 38.9952 51.9984L33.0186 56.4751C32.8874 56.5825 32.7267 56.6473 32.5577 56.661C32.3888 56.6746 32.2197 56.6364 32.073 56.5515C31.9263 56.4666 31.809 56.3389 31.7368 56.1856C31.6645 56.0323 31.6407 55.8606 31.6686 55.6934L34.1919 41.4834" stroke="#FF0059" stroke-width="2.5" stroke-linecap="round" stroke-linejoin="round"/>
<path d="M39.9873 43.333C45.5102 43.333 49.9873 38.8559 49.9873 33.333C49.9873 27.8102 45.5102 23.333 39.9873 23.333C34.4645 23.333 29.9873 27.8102 29.9873 33.333C29.9873 38.8559 34.4645 43.333 39.9873 43.333Z" stroke="#FF0059" stroke-width="2.5" stroke-linecap="round" stroke-linejoin="round"/>
</svg>
