<svg width="80" height="80" viewBox="0 0 80 80" fill="none" xmlns="http://www.w3.org/2000/svg">
<path d="M41.6377 31.2334L44.8544 36.9667" stroke="#006FFF" stroke-width="2.5" stroke-linecap="round" stroke-linejoin="round"/>
<path d="M51.8807 40C50.3293 41.5801 48.4786 42.8351 46.4367 43.6919C44.3948 44.5487 42.2026 44.9899 39.9882 44.9899C37.7738 44.9899 35.5817 44.5487 33.5397 43.6919C31.4978 42.8351 29.6471 41.5801 28.0957 40" stroke="#006FFF" stroke-width="2.5" stroke-linecap="round" stroke-linejoin="round"/>
<path d="M54.9877 54.9996L51.3877 48.5996" stroke="#006FFF" stroke-width="2.5" stroke-linecap="round" stroke-linejoin="round"/>
<path d="M24.9873 55.0001L38.354 31.2334" stroke="#006FFF" stroke-width="2.5" stroke-linecap="round" stroke-linejoin="round"/>
<path d="M39.9876 31.6667C41.8286 31.6667 43.321 30.1743 43.321 28.3333C43.321 26.4924 41.8286 25 39.9876 25C38.1467 25 36.6543 26.4924 36.6543 28.3333C36.6543 30.1743 38.1467 31.6667 39.9876 31.6667Z" stroke="#006FFF" stroke-width="2.5" stroke-linecap="round" stroke-linejoin="round"/>
</svg>
