<svg width="53" height="53" viewBox="0 0 53 53" fill="none" xmlns="http://www.w3.org/2000/svg">
<path d="M38.6136 27.2056C38.6136 35.3441 32.9167 39.4133 26.1455 41.7734C25.7909 41.8936 25.4058 41.8879 25.0549 41.7572C18.2675 39.4133 12.5706 35.3441 12.5706 27.2056V15.8118C12.5706 15.3801 12.742 14.9661 13.0473 14.6608C13.3525 14.3556 13.7666 14.1841 14.1982 14.1841C17.4536 14.1841 21.5229 12.2309 24.355 9.75678C24.6999 9.46216 25.1385 9.30029 25.5921 9.30029C26.0456 9.30029 26.4843 9.46216 26.8291 9.75678C29.6776 12.2471 33.7305 14.1841 36.9859 14.1841C37.4176 14.1841 37.8316 14.3556 38.1369 14.6608C38.4421 14.9661 38.6136 15.3801 38.6136 15.8118V27.2056Z" stroke="#160AFF" stroke-width="2.44154" stroke-linecap="round" stroke-linejoin="round"/>
<path d="M20.7086 25.5806L23.964 28.836L30.4748 22.3252" stroke="#160AFF" stroke-width="2.44154" stroke-linecap="round" stroke-linejoin="round"/>
</svg>
