<svg width="53" height="53" viewBox="0 0 53 53" fill="none" xmlns="http://www.w3.org/2000/svg">
<path d="M23.9911 10.6267C24.0608 10.2533 24.259 9.91606 24.5512 9.67338C24.8434 9.4307 25.2113 9.29785 25.5911 9.29785C25.971 9.29785 26.3388 9.4307 26.631 9.67338C26.9233 9.91606 27.1214 10.2533 27.1911 10.6267L28.9018 19.6734C29.0233 20.3166 29.3359 20.9082 29.7987 21.371C30.2616 21.8339 30.8532 22.1464 31.4964 22.2679L40.5431 23.9786C40.9165 24.0484 41.2537 24.2465 41.4964 24.5387C41.7391 24.8309 41.8719 25.1988 41.8719 25.5787C41.8719 25.9585 41.7391 26.3264 41.4964 26.6186C41.2537 26.9108 40.9165 27.1089 40.5431 27.1787L31.4964 28.8894C30.8532 29.0109 30.2616 29.3234 29.7987 29.7863C29.3359 30.2491 29.0233 30.8407 28.9018 31.4839L27.1911 40.5306C27.1214 40.904 26.9233 41.2412 26.631 41.4839C26.3388 41.7266 25.971 41.8595 25.5911 41.8595C25.2113 41.8595 24.8434 41.7266 24.5512 41.4839C24.259 41.2412 24.0608 40.904 23.9911 40.5306L22.2804 31.4839C22.1589 30.8407 21.8463 30.2491 21.3835 29.7863C20.9206 29.3234 20.329 29.0109 19.6858 28.8894L10.6391 27.1787C10.2658 27.1089 9.92852 26.9108 9.68583 26.6186C9.44315 26.3264 9.3103 25.9585 9.3103 25.5787C9.3103 25.1988 9.44315 24.8309 9.68583 24.5387C9.92852 24.2465 10.2658 24.0484 10.6391 23.9786L19.6858 22.2679C20.329 22.1464 20.9206 21.8339 21.3835 21.371C21.8463 20.9082 22.1589 20.3166 22.2804 19.6734L23.9911 10.6267Z" stroke="#00FCE3" stroke-width="2.44154" stroke-linecap="round" stroke-linejoin="round"/>
<path d="M38.6124 9.30273V15.8135" stroke="#00FCE3" stroke-width="2.44154" stroke-linecap="round" stroke-linejoin="round"/>
<path d="M41.8679 12.5581H35.3572" stroke="#00FCE3" stroke-width="2.44154" stroke-linecap="round" stroke-linejoin="round"/>
<path d="M12.57 41.8579C14.3679 41.8579 15.8253 40.4004 15.8253 38.6025C15.8253 36.8047 14.3679 35.3472 12.57 35.3472C10.7721 35.3472 9.31458 36.8047 9.31458 38.6025C9.31458 40.4004 10.7721 41.8579 12.57 41.8579Z" stroke="#00FCE3" stroke-width="2.44154" stroke-linecap="round" stroke-linejoin="round"/>
</svg>
